<?xml version="1.0" encoding="utf-8"?>
<!-- Generator: Adobe Illustrator 23.0.5, SVG Export Plug-In . SVG Version: 6.00 Build 0)  -->
<svg version="1.0" xmlns="http://www.w3.org/2000/svg" xmlns:xlink="http://www.w3.org/1999/xlink" x="0px" y="0px"
	 viewBox="0 0 295 263" style="enable-background:new 0 0 295 263;" xml:space="preserve">
<style type="text/css">
	.st0{fill:#FCFF2E;}
	.st1{fill:#FFFFFF;stroke:#000000;stroke-miterlimit:10;}
	.st2{fill:#FFFFFF;}
	.st3{fill:none;stroke:#000000;stroke-width:2;stroke-miterlimit:10;}
</style>
<g id="Background">
	<polygon class="st0" points="-0.5,-0.5 214.08,-0.5 242.01,-0.5 294.5,-0.5 294.5,54.29 294.5,262.5 -0.5,262.5 	"/>
</g>
<g id="Colors">
	<polygon class="st1" points="37,43 90,1 90,262 37,262 	"/>
	<polygon class="st2" points="90,99 156,99 156,165 	"/>
	<polyline class="st2" points="156,98 211,98 157,164 	"/>
	<polyline class="st2" points="211,0 264,40 264,262 211,262 	"/>
	<polyline class="st2" points="156,99 211,98 211,1 163,86 157,96 	"/>
	<polygon class="st2" points="90,1 156,98 90,98 	"/>
</g>
<g id="Capa_1">
	<polygon class="st3" points="0,-0.5 214.58,-0.5 242.51,-0.5 295,-0.5 295,54.29 295,262.5 0,262.5 	"/>
	<polygon class="st3" points="37,43.5 37,262.5 89.71,262.5 89.52,178.5 89.62,90.29 89.5,0.5 	"/>
	<polygon class="st3" points="90.5,98.5 155.5,164.5 155.5,98.5 	"/>
	<polygon class="st3" points="211.5,98.5 211.5,0.5 264,39.5 264,262.5 211.5,262.5 	"/>
	<polygon class="st3" points="211,98 156.5,164.5 155.5,98.5 	"/>
	<polyline class="st3" points="89.5,-0.5 154.59,97.14 155.5,98.5 211.5,-0.5 	"/>
	<path class="st3" d="M37.5,43.5"/>
	<line class="st3" x1="38" y1="43" x2="89.5" y2="43"/>
	<path class="st3" d="M211.5,38"/>
	<line class="st3" x1="264.5" y1="39.5" x2="211.5" y2="39.5"/>
</g>
</svg>
